# xmcd CD database file
#
# Track frame offsets:
#	150
#	18824
#	29871
#	50253
#	64465
#	84437
#	110213
#	127273
#	148158
#	169487
#	185026
#
# Disc length: 2788 seconds
#
# Revision: 1
# Processed by: cddbd v1.4PL0 Copyright (c) Steve Scherf et al.
# Submitted via: CDex 1.50beta8
#
DISCID=ae0ae20b
DTITLE=Big George Jackson Blues Band - Southern In My Soul
DYEAR=1900
DGENRE=Blues
TTITLE0=Southern In My Soul
TTITLE1=I've Done More For You Baby
TTITLE2=Blue Sky
TTITLE3=Go For A Ride
TTITLE4=Crosseyed Annie
TTITLE5=Love So Strong
TTITLE6=Biscuits 'n' Molasses
TTITLE7=I'm Sorry
TTITLE8=Amtrek
TTITLE9=You Ain't All That
TTITLE10=Argue, Fuss 'n' Fight
EXTD=
EXTT0=
EXTT1=
EXTT2=
EXTT3=
EXTT4=
EXTT5=
EXTT6=
EXTT7=
EXTT8=
EXTT9=
EXTT10=
PLAYORDER=
